<?xml version="1.0" encoding="utf-8"?>
<!-- Generator: Adobe Illustrator 21.0.0, SVG Export Plug-In . SVG Version: 6.00 Build 0)  -->
<svg version="1.1" id="Layer_1" xmlns="http://www.w3.org/2000/svg" xmlns:xlink="http://www.w3.org/1999/xlink" x="0px" y="0px"
	 viewBox="0 0 162.6 162.6" style="enable-background:new 0 0 162.6 162.6;" xml:space="preserve">
<style type="text/css">
	.st0{fill:#E41E2B;}
	.st1{fill:none;stroke:#FFFFFF;stroke-miterlimit:10;}
	.st2{fill:#FFFFFF;}
</style>
<g>
	<path class="st0" d="M162.1,81.3c0-44.6-36.2-80.8-80.8-80.8C36.7,0.5,0.5,36.7,0.5,81.3c0,44.6,36.2,80.8,80.8,80.8
		C125.9,162.1,162.1,125.9,162.1,81.3"/>
	<path class="st1" d="M162.1,81.3c0-44.6-36.2-80.8-80.8-80.8C36.7,0.5,0.5,36.7,0.5,81.3c0,44.6,36.2,80.8,80.8,80.8
		C125.9,162.1,162.1,125.9,162.1,81.3"/>
	<path d="M111.1,125.3c-0.7-2.2-2.2-5.9-2.2-13.5c0-8.2,2.7-24.1,2.8-25.1c0.2-1.6,0.6-3.3-0.3-3.7c1.1-0.8,0.2-21.1-1.7-21.9
		c1,0,0.6-2.3,0.4-3.8c-0.4-2.9-2.9-9.6-5.1-17c-1-3.3-2.5-8.2-3-11.9c-0.5-3.4-0.4-7.7-0.4-9.6c0.6-0.6,0.9-0.9,0.9-2
		c0-1.1-1.4-3.6-1.4-4c0-0.4,0-0.8,0.5-1.2c0.5-0.5,0.5-1.3,0.3-2c-0.3-0.8-1.3-1.1-1.9-1.2c-0.5-0.1-3.3-0.4-6.1-0.4
		c-2.8,0-5.5,0.3-6.1,0.4c-0.6,0.1-1.6,0.4-1.9,1.2c-0.2,0.7-0.3,1.5,0.3,2c0.5,0.4,0.5,0.9,0.5,1.2c0,0.3-0.8,2-1.2,3.2
		c0.4,1,1.1,2.5,1.1,3.2c0,0.7-0.1,1.1-0.4,1.5c0,2.2,0,5.2-0.4,7.8c0,0.1,0,0.1,0,0.2c0.1,0.9,0.1,1.9,0.3,2.7
		c0.5,3.8,2.1,9,3.1,12.5c2.3,7.7,4.9,14.8,5.3,17.8c0.1,0.8,0.2,1.4,0.2,1.9c0.1,0.6,0,1.2-0.1,1.6c1.7,1.9,2.5,19.5,1.6,21.6
		c0,0.1,0,0.2,0,0.2c0.8,0.5,0.4,2,0.2,3.6h0c-0.1,0.6-0.2,1.3-0.2,1.9c-0.1,1-3,17.7-3,26.4c0,8,1.6,11.9,2.3,14.2
		c0.5,1.6,1.1,4.6,1,7.4c5.6-0.2,11.2-1.1,13-2.2C113.1,136.1,112.1,128.3,111.1,125.3"/>
	<path d="M59.7,65.6c-1.1,0-0.8-2.4-0.5-4.1c0.5-3,3.3-10,5.7-17.8c1.1-3.5,2.8-8.7,3.3-12.6c0.1-0.5,0.1-0.9,0.2-1.4
		c0,0,0-0.1,0-0.1c0-0.4,0.1-0.8,0.1-1.2c0.1-2.2,0.1-4.3,0.1-5.8c-1.2-1.2-1.2-2.5-1.1-3.1c0.1-0.8,0.6-1.7,1.2-2.7
		c0.3-0.5,0.6-1.1,0.7-1.3c0.1-0.5-0.5-0.9-0.7-1.1c-1.1-1-1.4-2.9,0.5-4.1c0.8-0.5,1.7-0.6,2.3-0.7c2.7-0.3,5.3-0.1,6,0
		c0.1,0,0.1,0.1,0.1,0.1c0,0.1-0.1,0.1-0.2,0.1v0c-2.9,0-5.5,0.3-6.1,0.4c-0.6,0.2-1.8,0.4-2.1,1.3c-0.2,0.8-0.3,1.7,0.3,2.2
		c0.5,0.5,0.6,1,0.5,1.4c-0.1,0.4-1.5,3.2-1.5,4.3c0,1.1,0.2,1.4,0.9,2.1l0,0c0,0,0,0,0.1,0.1c0,2,0.1,6.1-0.4,9.6
		c-0.5,3.8-2.1,9-3.1,12.4c-0.1,0.3-0.2,0.6-0.3,0.9c-2.2,7.3-5.2,14.2-5.9,17c-0.4,1.5-0.5,2.8,0,3.4c0.1,0.1,0.4,0.3,0.6,0.4
		C60.5,65.5,60.9,65.7,59.7,65.6"/>
	<path class="st2" d="M72.2,102.8c-3.5-2.4-7.7-3.5-11.6-3.4c-3.9,0.2-5.6,3.1-5.6,3.1c-1.8-3.1-5.2-4.9-10.6-4.9
		c-8.7,0.1-17.2,4.1-24,4.1c-6.5,0-11.3-4.1-11.1-11.4c0.3-12.8,11.1-24.3,19.1-29.5c4.6-3,8.5-3.9,11.1-3.6
		c1.8,0.2,4.1,2.3,2.7,5.5c-2.1,4.6-4.9,4.2-4.8,2c0.1-1.4,1-2.3,1.7-2.8c0.5-0.3,1.3-0.4,1.7-0.4c0.4-0.3,0.7-2.9-2.6-2
		c-3.3,0.8-7.3,4.1-11.1,8.3c-3.8,4.2-9.7,12.2-11.2,20.5c-0.7,3.9-0.2,10.9,9,10.9c7.8-0.1,19.3-5.2,29.8-5.1
		c4.1,0,7.7,1.1,10.4,2.9C67.8,98.7,71.1,101.2,72.2,102.8 M74.7,79.7h1.6c0,0-8,11.6-12.5,11c-2.5-0.3-1.8-3.4-1.8-3.4
		s-3.6,4.2-6.8,3.3c-3-0.8-1.1-5.7-1.1-5.7c-0.3,0.1-6.7,7.3-11.2,5.6c-4.7-1.8-2.3-7.8-1.4-9.7c0.8-1.5,1.6-3,1.6-3
		s-0.7,0.2-1.2,0.3c-0.5,0.1-1.1,0.2-1.1,0.2s-2.2,3.6-3.6,5.4c-1.4,1.8-7.1,8-10.5,6.8c-3.4-1.2-2.6-6-0.6-9.8
		c3.1-6.1,10.4-13.7,14.9-12.5c4.5,1.1,0.8,8.4,0.8,8.4s0.9,0.1,3-1.3c3.1-2.1,7.1-7.7,11.5-7.1c2.1,0.3,4,2.4,1.4,6.4
		c-0.8,1.3-2.2,2.4-3.3,1.3c-0.7-0.7-0.1-2,0.6-2.9c1-1.3,2.4-1.1,2.4-1.1s0.7-1.7-1.1-1.6c-1.5,0-5.3,3.5-7.4,7
		c-2,3.2-4.9,8.7-1.9,9.9c2.7,1.1,7.9-5.1,10.3-8.3c2.4-3.2,7.9-10.6,12.5-10.8c1.6-0.1,2.5,1.3,2.5,1.3l0.5-0.8h4.6
		c0,0-8.6,14.5-9.3,15.5c-0.5,0.9-1.2,2.8,0.7,1.7C70.7,84.9,74.7,79.7,74.7,79.7 M39.1,78.2c-0.1,0-1.2-0.4-2.4-1.1
		c-1.1-0.7-1.6-1.8-1.7-1.9c0-0.1-0.1,0-0.1,0c0,0.1-0.3,0.4-1.9,2.8c-1.6,2.4-4.1,7.3-1.8,8.2c1.5,0.5,3.9-2,5.2-3.7
		c1.2-1.6,2.7-4,2.8-4.1C39.3,78.3,39.2,78.2,39.1,78.2 M40.9,70.5c-1.2-0.9-4.3,1.2-4.3,3.4c0,2.2,2.8,2.9,3.1,2.9
		c0,0,0.3,0.1,0.4-0.2c0.1-0.2,0.5-0.9,0.9-2C41.5,73.6,42.1,71.4,40.9,70.5 M64.3,82.6c1.9-2.5,7-11.4,7-11.4s-0.1-0.6-0.7-0.7
		c-0.7,0-1.9,0.2-4.2,3.1c-2.3,2.9-4.2,5.3-5.5,7.7c-1.5,2.7-2.1,4.5-1.3,5c0.2,0.1,0.6,0.2,0.9,0.1c0.5-0.1,1.3-0.7,2.2-1.8
		C63.2,84.1,63.7,83.4,64.3,82.6 M84.9,68.8h-4.4l-2.5,4h4.4L84.9,68.8z M142.1,98.5c-0.4,0-0.8,0.1-1.1,0.5
		c-0.3,0.3-0.5,0.7-0.5,1.1c0,0.4,0.2,0.8,0.5,1.1c0.3,0.3,0.7,0.5,1.1,0.5c0.4,0,0.8-0.2,1.1-0.5c0.3-0.3,0.5-0.7,0.5-1.1
		c0-0.4-0.1-0.8-0.5-1.1C142.9,98.6,142.6,98.5,142.1,98.5 M143.9,100c0,0.5-0.2,0.9-0.5,1.3c-0.4,0.4-0.8,0.5-1.3,0.5
		c-0.5,0-0.9-0.2-1.3-0.5c-0.4-0.4-0.5-0.8-0.5-1.3c0-0.5,0.2-0.9,0.5-1.3c0.4-0.4,0.8-0.5,1.3-0.5c0.5,0,0.9,0.2,1.3,0.5
		C143.8,99.1,143.9,99.5,143.9,100 M142.6,99.7c0-0.1,0-0.3-0.1-0.3c-0.1-0.1-0.2-0.1-0.4-0.1h-0.3v0.7h0.3c0.2,0,0.3,0,0.3,0
		C142.5,99.9,142.6,99.8,142.6,99.7 M141.4,99h0.7c0.3,0,0.4,0,0.6,0.1c0.2,0.1,0.3,0.3,0.3,0.5c0,0.2-0.1,0.3-0.2,0.4
		c-0.1,0-0.2,0.1-0.3,0.1c0.2,0,0.3,0.1,0.3,0.2c0.1,0.1,0.1,0.2,0.1,0.3v0.1c0,0,0,0.1,0,0.1c0,0.1,0,0.1,0,0.1l0,0h-0.3v0
		c0,0,0,0,0,0l0-0.1v-0.2c0-0.2-0.1-0.4-0.2-0.5c-0.1-0.1-0.2-0.1-0.4-0.1h-0.3v0.8h-0.4V99z M149.3,61.6c-3.2,2.1-7.7,4-12,3.5
		c-1.1,1.1-2.2,2.4-3.4,3.8c7.4,1.5,14-3.1,17.4-7.1c2.2-2.5,3.2-4.6,3.2-4.6S152.5,59.6,149.3,61.6 M136.5,95.4
		c-0.6,1-1.3,2.9,0.7,1.7c2.5-1.4,6-6.8,6-6.8h1.6c0,0-2.1,3.3-4.8,6.4c-2.5,2.8-5.6,5.3-7.7,5.1c-2.5-0.3-1.7-3.6-1.7-3.6
		s-3.6,3.8-6.1,3.6c-3.4-0.4-2.3-4.5-2.3-4.5s-3.8,4.7-6.4,4.5c-4.1-0.2-3.1-5.2-1.9-8.7c0.6-1.9,1.2-3.3,1.2-3.3s-0.4,0.1-1.3,0.2
		c-0.5,0.1-1.3,0.1-1.3,0.1s-1.7,3-3.1,4.8c-1.4,1.8-7.1,8-10.5,6.8c-3.1-1.1-2.1-6-0.3-9.8c2.7-5.6,10.2-13.6,14.5-12.5
		c4.5,1.1,0.1,9.3,0.1,9.3s0,0,0,0c0.1,0,0.3,0.1,0.9,0c0.9-0.2,1.6-0.5,1.6-0.5s4.5-9.4,9.5-15.6c5-6.2,14.9-16.8,18.8-14.3
		c1,0.6,0.5,2.8-0.8,5.5c-0.6,0.2-1.2,0.3-1.8,0.5c0.9-1.6,1.4-2.9,1.6-3.8c0.6-3.2-6.9,3.5-12.2,10.8c-5.3,7.2-8.5,13.8-8.5,13.8
		s1.1-0.6,2.8-2c1.7-1.4,4.1-3.6,6.8-6.3c1.8-1.8,3.8-4.1,5.8-6.6c0.6,0,1.1-0.1,1.7-0.2c-2.1,2.9-4.4,5.6-6.3,7.5
		c-2.1,2.1-4.4,4.5-6.4,6.1c-3.2,2.7-5.6,4.2-5.6,4.2s-4.7,9.4-2.1,10c1.5,0.4,4.4-4.2,4.4-4.2s3.8-5.9,6.2-8.5
		c3.2-3.6,5.9-5.7,8.6-5.7c1.6,0,2.5,1.7,2.5,1.7l0.7-1.2h4.6C145.8,79.8,137.2,94.3,136.5,95.4 M110.8,89.7c-0.1,0-1.1-0.5-2.1-1.3
		c-1-0.9-1.6-1.8-1.6-1.9c0-0.1-0.1,0-0.1,0c0,0.1-0.2,0.2-1.9,2.6c-1.6,2.4-4.1,7.4-1.9,8.2c1.5,0.5,3.9-2,5.2-3.7
		c1.2-1.6,2.4-3.6,2.4-3.7C110.9,89.8,110.8,89.7,110.8,89.7 M113.1,85.6c0.4-1.1,1-3.3-0.2-4.1c-1.2-0.9-4.3,1.2-4.3,3.4
		c0,2.2,2.2,3.2,2.7,3.4c0.3,0.1,0.4,0.1,0.5-0.2C111.9,88,112.6,86.8,113.1,85.6 M139.4,82.6c0.1-0.2,0.1-0.3,0.1-0.3
		s-0.1-0.6-0.7-0.7c-0.7,0-1.7,0.1-4.2,2.9c-2.5,2.8-4.1,5.2-5.4,7.6c-1.5,2.7-2,4.6-1.2,5.1c0.2,0.1,0.6,0.2,0.9,0.1
		c0.6-0.1,1.2-0.7,2.2-1.8c0.5-0.5,1-1.3,1.6-2.1C134.3,91.2,138.6,84,139.4,82.6 M149.3,61.6c-3.2,2.1-7.7,4-12,3.5
		c-1.1,1.1-2.2,2.4-3.4,3.8c7.4,1.5,14-3.1,17.4-7.1c2.2-2.5,3.2-4.6,3.2-4.6S152.5,59.6,149.3,61.6 M128.4,67
		c-3.5-1.8-6.1-4-8.8-5.4c-2.6-1.3-4.2-1.9-6.3-1.6c-0.3,0-0.9,0.2-0.9,0.2s1.1,3.6-3.2,9.7c-4.3,6.2-8.2,6.2-9.3,4.4
		c-1.2-1.8,0.3-5.4,2.8-8.7c2.6-3.4,7.2-6.2,7.2-6.2s-1.5-0.9-5.1,1.1c-3.5,2-9.5,6.7-15.1,14.7c-5.6,8-6.7,12.4-7.5,15.8
		c-0.8,3.5-0.1,7.1,3.8,7.1c3.8,0,8.3-5.8,9.5-7.9c2.3-3.8,3.8-9.6,0.7-8.8c-1.6,0.4-2.8,2.1-3.6,3.8c-0.8,1.7-1.1,3.4-1.1,3.4
		s-1.3,0.5-3.1,1.8c-1.8,1.3-2.9,2.6-2.9,2.6s0-2.8,2.2-7.2c2.2-4.5,6.2-6.5,8.5-6.7c2.1-0.2,4.7,1.6,2.5,8c-2.3,6.5-9,14.3-16,14.4
		C76.2,101.8,72,93.5,81,79c10-16,21.7-20.9,25.6-21.5c3.8-0.6,5,1.1,5,1.1s3.2-1.5,7.2-1.2c4.7,0.3,8.3,3.6,13,5.9
		C130.6,64.6,129.4,65.9,128.4,67 M111,60.7c0,0-2.7,1.1-5.9,4.6c-3.2,3.5-5,7.4-3.6,8.5c0.5,0.4,1.7,0.5,3.9-1.5
		c1.7-1.5,3.4-3.6,4.6-6.4C111.5,62.4,111,60.8,111,60.7"/>
	<path d="M100.6,146.5c0,0,0-0.1,0-0.1c-0.2-0.6-1.5-1.2-3.6-1.7c0-0.1,0-0.2,0-0.2c0.1-1.1,0-2.5-0.2-2.9c-0.1-0.3-0.3-0.3-0.3-0.2
		c-0.2,2.3-0.9,4.4-2.5,5.3c-2.2,1.3-9.6,2.3-16.4,2.3c-4.6,0-9.5-0.5-12.8-1.2c-1.6-0.3-2.8-0.7-3.5-1.1c-3.3-1.9-2.8-8.5-2-12.2
		c0-0.1,0-0.1,0-0.2c0,0,0,0,0,0c0.7-2.9,2.5-8.2,2.5-15.3c0-2.7-0.4-6.5-0.7-10c0-0.4-0.4-0.4-0.4,0.2c0.2,4.5,0.5,7.9,0.3,11.5
		c-0.6,9.2-4.8,14.7-3,22.4c0,0.1,0.1,0.3,0.1,0.4c0,0.1,0,0.1,0,0.2c0,0,0,0.1,0,0.1c0.1,0.4,0.2,0.7,0.4,1.2
		c0.5,1.2,1.1,2.1,2.1,2.7c1.5,0.8,5.2,1.7,9.5,2.1c3.2,0.5,7.4,0.7,11.9,0.7c2.7,0,5-0.1,6.8-0.4
		C95.9,149.2,100.6,147.9,100.6,146.5"/>
</g>
</svg>
