<?xml version="1.0" encoding="iso-8859-1"?>
<!-- Generator: Adobe Illustrator 18.1.1, SVG Export Plug-In . SVG Version: 6.00 Build 0)  -->
<svg version="1.1" id="Capa_1" xmlns="http://www.w3.org/2000/svg" xmlns:xlink="http://www.w3.org/1999/xlink" x="0px" y="0px" viewBox="0 0 205.469 205.469" style="enable-background:new 0 0 205.469 205.469;" xml:space="preserve">
<g>
    <path style="fill:#cccccc;" d="M97.379,101.188c1.116-2.232,1.343-4.189,0.668-5.842c-0.668-1.653-2.488-2.852-5.472-3.592
        c-3.658-0.901-7.506-0.507-11.492,1.164c-2.214,0.925-4.35,2.279-6.438,4.093c5.501,1.474,11.128,2.775,16.671,4.207
        c-1.247,0.937-2.488,1.874-3.735,2.81c-5.322-1.36-10.728-2.619-16.009-4.052c-0.656,0.74-1.307,1.516-1.963,2.363
        c-0.31,0.382-0.591,0.752-0.859,1.104c5.698,1.545,11.564,2.9,17.316,4.38c-1.235,0.937-2.482,1.874-3.723,2.816
        c-5.197-1.331-10.478-2.578-15.627-3.956c-1.056,2.059-1.528,3.956-1.426,5.669c0.125,2.87,2.226,4.803,6.235,5.794
        c3.705,0.901,7.494,0.388,11.349-1.575c2.053-1.038,4.141-2.548,6.319-4.541c1.599,0.448,3.168,0.925,4.732,1.42
        c-3.115,3.264-6.76,5.686-10.979,7.297c-5.072,1.963-10.078,2.327-15.06,1.104c-4.296-1.062-7.011-3.091-8.079-6.14
        c-1.026-2.876-0.37-6.373,1.909-10.436c-2.423-0.722-4.827-1.498-7.154-2.363c1.217-0.895,2.429-1.802,3.64-2.703
        c1.838,0.644,3.688,1.253,5.591,1.82c0.436-0.615,0.895-1.241,1.396-1.874c0.43-0.543,0.883-1.08,1.366-1.605
        c-2.303-0.698-4.553-1.432-6.76-2.238c1.217-0.901,2.434-1.814,3.64-2.709c1.975,0.698,3.998,1.349,6.044,1.951
        c2.798-2.482,5.865-4.445,9.243-5.919c5.698-2.476,11.313-3.061,16.809-1.707c4.684,1.164,7.417,3.18,8.222,6.068
        c0.829,2.876,0.239,5.77-1.653,8.604C100.548,102.101,98.966,101.63,97.379,101.188z M108.287,180.303
        c17.37-21.934,34.733-43.868,52.115-65.797c-4.254-26.016-22.495-34.363-42.89-39.996l-18.825,5.525
        c0.251,0.054,0.507,0.101,0.764,0.155c18.7,3.992,22.901,21.057,12.059,34.745c-10.43,13.175-31.899,17.901-50.593,13.909
        c-18.706-3.992-22.913-21.051-12.059-34.739c7.858-9.923,21.946-15.048,36.416-15.275c-3.21-2.166-5.376-5.704-5.955-9.732
        l-0.376-2.769c-0.161-1.074-0.185-2.154-0.131-3.228c-13.235-5.985-23.629-15.556-26.708-34.369
        C34.727,50.667,17.364,72.595,0,94.523C10.024,156.018,98.233,118.802,108.287,180.303z M163.355,146.083h-21.648
        c-2.22,2.816-4.451,5.627-6.677,8.443h28.325c8.139,0,14.774-6.629,14.774-14.774v-39.167c0-6.331-1.665-15.955-3.801-21.904
        l-15.657-43.755c-1.337-3.705-4.028-6.677-7.602-8.354c-3.58-1.677-7.578-1.862-11.283-0.513L93.322,42.957
        c-7.363,2.673-12.274,10.848-11.17,18.611l0.37,2.649c0.573,3.956,2.727,7.399,5.919,9.463c3.192,2.059,7.238,2.596,11.063,1.474
        l25.86-7.566c1.444-0.418,2.709-0.316,3.556,0.322c0.955,0.722,1.158,1.963,1.158,2.87v2.816l8.443,4.225v-7.041V54.754
        l-15.538,4.738l-25.848,7.566c-1.504,0.442-2.971,0.274-4.123-0.471c-1.14-0.746-1.909-2.005-2.118-3.562l-0.37-2.637
        c-0.537-3.759,2.118-8.198,5.686-9.493l46.464-16.898c1.575-0.573,3.288-0.495,4.815,0.221c1.528,0.722,2.679,1.981,3.252,3.562
        l15.651,43.755c1.796,5.006,3.312,13.736,3.312,19.064v39.167C169.692,143.249,166.846,146.083,163.355,146.083z M205.469,87.035
        l-22.758-0.09v66.334l22.758,0.131V87.035z"/>
</g>
<g>
</g>
<g>
</g>
<g>
</g>
<g>
</g>
<g>
</g>
<g>
</g>
<g>
</g>
<g>
</g>
<g>
</g>
<g>
</g>
<g>
</g>
<g>
</g>
<g>
</g>
<g>
</g>
<g>
</g>
</svg>
